<svg width="531" height="232" viewBox="0 0 531 232" fill="none" xmlns="http://www.w3.org/2000/svg">
<path d="M509.715 44.261C501.994 45.747 494.07 42.967 488.97 36.982C483.87 30.997 482.383 22.733 485.076 15.345C487.769 7.95801 494.226 2.58902 501.981 1.29002C513.771 -0.684978 524.957 7.189 527.074 18.955C529.192 30.72 521.454 42.001 509.715 44.261Z" fill="black"/>
<path d="M119.986 229.41L120.059 2.60202L171.442 2.57104L171.297 229.55L119.986 229.41Z" fill="black"/>
<path d="M0.092041 183.452C13.452 183.181 27.425 184.376 40.693 183.248C43.751 182.987 48.268 181.977 50.231 179.361C51.361 177.856 51.8551 175.55 51.6141 173.699C50.7211 166.833 30.494 155.553 24.439 150.787C11.274 140.427 2.77805 127.718 0.822052 110.833C-0.892948 96.044 2.92805 80.654 12.345 68.985C21.883 57.166 35.302 51.719 50.089 50.201C56.218 49.462 62.891 49.934 69.078 49.954L102.449 49.98C102.619 64.957 102.481 79.952 102.495 94.931C91.323 94.833 80.025 94.481 68.86 94.774C64.99 94.875 60.585 95.46 57.871 98.543C56.59 99.998 56.075 101.722 56.189 103.64C56.753 113.09 79.537 124.846 86.783 130.947C98.339 140.678 105.438 152.941 106.708 168.169C107.998 183.625 104.034 198.258 93.887 210.106C83.39 222.364 69.7361 228.212 53.8771 229.479L0.194046 229.458C0.253046 214.123 0.219041 198.787 0.092041 183.452Z" fill="black"/>
<path d="M354.174 200.22C368.906 178.881 375.724 154.174 372.153 128.222C369.211 106.844 358.992 85.635 343.894 70.18C337.533 63.67 330.34 58.103 323.128 52.585C341.994 53.006 360.905 52.704 379.778 52.76C383.941 73.645 387.219 94.67 391.243 115.569C395.623 138.318 400.905 161.174 403.857 184.152C415.11 140.428 424.581 96.239 436.281 52.624C447.983 52.835 459.688 52.899 471.392 52.816C480.311 52.78 490.526 51.627 499.192 53.635C505.891 55.187 512.895 58.992 517.758 63.862C524.21 70.321 527.096 78.698 528.622 87.531C531.136 102.087 529.676 121.494 529.656 136.574L529.526 229.059C522.503 228.96 515.468 229.069 508.443 229.096C498.334 229.083 488.122 229.297 478.03 228.714L478.076 146.889C478.096 129.887 478.691 112.643 477.866 95.674C470.412 123.84 462.166 152.042 453.577 179.882C450.707 189.183 448.669 199.752 444.562 208.501C440.182 217.834 432.069 224.177 422.454 227.537C408.075 232.562 388.299 232.333 374.496 225.568C363.104 219.985 358.223 211.863 354.174 200.22Z" fill="black"/>
<path d="M279.738 229.379C231.194 233.69 188.345 197.838 184.024 149.295C179.704 100.752 215.549 57.896 264.091 53.567C312.645 49.237 355.515 85.092 359.836 133.648C364.158 182.203 328.294 225.066 279.738 229.379ZM269.108 100.596C246.329 102.849 229.732 123.207 232.116 145.973C234.499 168.739 254.952 185.219 277.704 182.704C300.272 180.21 316.589 159.959 314.225 137.377C311.861 114.795 291.703 98.362 269.108 100.596Z" fill="black"/>
</svg>
